HIERARCHY
ROOT Hips
{
	OFFSET	0.00	0.00	0.00
	CHANNELS 6 Xposition Yposition Zposition Zrotation Xrotation Yrotation
	JOINT LeftUpLeg
	{
		OFFSET	 0.126116	-0.014019	-0.065224
		CHANNELS 3 Zrotation Xrotation Yrotation
		JOINT LeftLeg
		{
			OFFSET	 0.000000	 0.000000	 0.569914
			CHANNELS 3 Zrotation Xrotation Yrotation
			JOINT LeftFoot
			{
				OFFSET	 0.000000	 0.000000	 0.544423
				CHANNELS 3 Zrotation Xrotation Yrotation
				JOINT LeftToeBase
				{
					OFFSET	 0.000000	 0.000000	 0.207117
					CHANNELS 3 Zrotation Xrotation Yrotation
					End Site
					{
						OFFSET	 0.000000	 0.000000	 0.207117
					}
				}
			}
		}
	}
	JOINT RightUpLeg
	{
		OFFSET	-0.124023	-0.008373	-0.065224
		CHANNELS 3 Zrotation Xrotation Yrotation
		JOINT RightLeg
		{
			OFFSET	 0.000000	 0.000000	 0.570047
			CHANNELS 3 Zrotation Xrotation Yrotation
			JOINT RightFoot
			{
				OFFSET	 0.000000	 0.000000	 0.544354
				CHANNELS 3 Zrotation Xrotation Yrotation
				JOINT RightToeBase
				{
					OFFSET	 0.000000	 0.000000	 0.207540
					CHANNELS 3 Zrotation Xrotation Yrotation
					End Site
					{
						OFFSET	 0.000000	 0.000000	 0.207540
					}
				}
			}
		}
	}
	JOINT Spine
	{
		OFFSET	 0.000184	-0.007763	 0.117403
		CHANNELS 3 Zrotation Xrotation Yrotation
		JOINT Spine1
		{
			OFFSET	 0.000000	 0.000000	 0.137269
			CHANNELS 3 Zrotation Xrotation Yrotation
			JOINT Spine2
			{
				OFFSET	 0.000000	 0.000000	 0.156879
				CHANNELS 3 Zrotation Xrotation Yrotation
				JOINT LeftShoulder
				{
					OFFSET	 0.080501	-0.002496	 0.160144
					CHANNELS 3 Zrotation Xrotation Yrotation
					JOINT LeftArm
					{
						OFFSET	 0.000000	 0.000000	 0.164363
						CHANNELS 3 Zrotation Xrotation Yrotation
						JOINT LeftForeArm
						{
							OFFSET	 0.000000	 0.000000	 0.364576
							CHANNELS 3 Zrotation Xrotation Yrotation
							JOINT LeftHand
							{
								OFFSET	 0.000000	 0.000000	 0.360812
								CHANNELS 3 Zrotation Xrotation Yrotation
								JOINT LeftHandIndex1
								{
									OFFSET	 0.000000	 0.000000	 0.086006
									CHANNELS 3 Zrotation Xrotation Yrotation
									JOINT LeftHandIndex2
									{
										OFFSET	 0.000000	 0.000000	 0.047236
										CHANNELS 3 Zrotation Xrotation Yrotation
										JOINT LeftHandIndex3
										{
											OFFSET	-0.004284	-0.000551	 0.038166
											CHANNELS 3 Zrotation Xrotation Yrotation
											End Site
											{
												OFFSET	-0.004284	-0.000551	 0.038166
											}
										}
									}
								}
							}
						}
					}
				}
				JOINT Neck
				{
					OFFSET	 0.000000	 0.000000	 0.176489
					CHANNELS 3 Zrotation Xrotation Yrotation
					JOINT Head
					{
						OFFSET	 0.000000	-0.001747	 0.077940
						CHANNELS 3 Zrotation Xrotation Yrotation
						End Site
						{
							OFFSET	 0.000000	-0.001747	 0.077940
						}
					}
				}
				JOINT RightShoulder
				{
					OFFSET	-0.080363	 0.000306	 0.159706
					CHANNELS 3 Zrotation Xrotation Yrotation
					JOINT RightArm
					{
						OFFSET	 0.000000	 0.000000	 0.164196
						CHANNELS 3 Zrotation Xrotation Yrotation
						JOINT RightForeArm
						{
							OFFSET	 0.000000	 0.000000	 0.365611
							CHANNELS 3 Zrotation Xrotation Yrotation
							JOINT RightHand
							{
								OFFSET	 0.000000	 0.000000	 0.360648
								CHANNELS 3 Zrotation Xrotation Yrotation
								JOINT RightHandIndex1
								{
									OFFSET	 0.000000	 0.000000	 0.069977
									CHANNELS 3 Zrotation Xrotation Yrotation
									JOINT RightHandIndex2
									{
										OFFSET	 0.000000	 0.000000	 0.052305
										CHANNELS 3 Zrotation Xrotation Yrotation
										JOINT RightHandIndex3
										{
											OFFSET	 0.009002	-0.000782	 0.042196
											CHANNELS 3 Zrotation Xrotation Yrotation
											End Site
											{
												OFFSET	 0.009002	-0.000782	 0.042196
											}
										}
									}
								}
							}
						}
					}
				}
			}
		}
	}
}
MOTION
Frames:    10
Frame Time: 0.03333334
-0.001103	 0.073126	 1.272350	-0.000005	-0.000014	-0.000013	 4.117246	-1.743471	 179.873500	 3.144691	-11.594560	 1.749916	 4.431090	 71.402270	 1.145380	-2.385832	 28.452790	-0.000001	-4.119452	-2.154259	-179.893100	-3.138409	-11.963990	-1.790670	-4.423576	 71.426400	-1.178366	 2.384659	 28.388700	-0.000001	 7.103216	 2.964110	 0.140729	 11.836530	-1.296834	 0.919215	 14.206920	-1.531872	 1.134142	-91.776180	 78.527400	-180.000000	 12.108180	-5.220949	-1.016094	-4.393901	-0.888950	-0.368848	-19.487200	-18.143790	-4.281757	-3.812334	 37.924440	-2.927599	-2.450526	 36.184240	 0.754587	-1.378229	 35.397820	-2.634230	-0.000002	-3.783157	-0.089647	 3.526686	 0.823432	-0.025325	 89.782090	 78.203830	-180.000000	-12.512950	-5.961371	 1.072636	 4.635303	-0.427220	 0.526680	 21.177900	-19.116590	 8.763015	 6.437017	 35.671460	-0.771858	 2.830251	 35.756010	-7.813440	-2.350882	 35.473990	 5.254307
 0.005800	 0.070420	 1.268675	 88.930370	 0.670134	 3.695356	 5.048538	-4.015272	 176.484700	-11.219110	-33.786470	-5.150989	 171.954600	 86.538530	 179.411200	-2.377274	 30.216600	-0.038599	 1.758327	-12.680350	 178.977700	 3.663580	-47.659890	 5.726298	-175.451900	 82.060420	-178.607600	 2.403695	 22.131410	-0.130457	 6.144624	 0.078944	-1.550051	 11.324170	-2.600393	 0.643711	 14.050300	-4.592129	 1.495897	-91.809810	 77.610600	 179.130700	 36.729700	 69.873090	-39.741250	-7.989023	-4.008075	-19.953790	 4.138146	-20.134840	-5.679392	-3.812334	 37.924440	-2.927599	-2.450526	 36.184240	 0.754587	-1.378229	 35.397820	-2.634230	 0.511633	 6.056878	-3.199840	 3.877145	-13.798560	-0.605227	 89.765340	 79.264470	-179.645700	-36.389840	 70.354440	 39.101750	 4.240346	-7.811655	 30.637240	-8.161546	-20.931890	 10.265540	 6.437017	 35.671460	-0.771858	 2.830251	 35.756010	-7.813440	-2.350882	 35.473990	 5.254307
 0.003181	 0.071388	 1.268330	 89.084340	 0.717035	 3.706762	 5.033302	-4.131481	 176.503500	-11.134670	-33.937380	-5.132792	 171.978800	 86.389900	 179.453600	-2.376686	 30.327790	-0.041069	 1.775929	-12.737590	 178.979000	 3.708035	-47.791140	 5.786906	-175.672300	 81.869120	-178.361500	 2.403625	 22.166720	-0.129744	 6.129632	 0.052498	-1.590142	 11.295360	-2.648732	 0.635925	 13.996560	-4.649784	 1.497138	-91.809710	 77.594360	 179.146900	 36.628080	 69.846810	-39.606040	-8.036812	-4.027131	-20.213200	 4.082833	-20.149250	-5.681390	-3.812334	 37.924440	-2.927599	-2.450526	 36.184240	 0.754587	-1.378229	 35.397820	-2.634230	 0.470978	 5.965916	-3.250556	 3.833088	-13.699200	-0.567775	 89.764690	 79.279750	-179.636600	-36.304210	 70.417790	 39.048960	 4.265831	-7.773273	 30.386400	-8.185738	-20.950910	 10.266380	 6.437017	 35.671460	-0.771858	 2.830251	 35.756010	-7.813440	-2.350882	 35.473990	 5.254307
-0.003111	 0.072505	 1.267997	 89.192120	 0.762644	 3.732745	 5.016983	-4.248030	 176.522800	-11.049550	-34.096750	-5.115755	 171.969700	 86.246310	 179.529200	-2.376076	 30.442220	-0.043603	 1.837092	-12.822550	 178.972900	 3.790193	-47.993260	 5.913966	-175.966800	 81.674370	-178.003900	 2.403597	 22.185700	-0.129359	 6.122093	 0.019017	-1.616595	 11.282820	-2.704885	 0.616288	 13.970070	-4.712726	 1.501924	-91.809170	 77.600550	 179.156400	 36.591560	 69.802520	-39.589860	-8.079076	-4.038225	-20.426320	 4.024905	-20.168680	-5.683579	-3.812334	 37.924440	-2.927599	-2.450526	 36.184240	 0.754587	-1.378229	 35.397820	-2.634230	 0.467638	 5.836997	-3.408159	 3.833871	-13.579550	-0.402794	 89.764240	 79.273100	-179.625800	-36.260450	 70.460530	 39.031350	 4.264436	-7.743351	 30.166400	-8.213191	-20.975780	 10.267270	 6.437017	 35.671460	-0.771858	 2.830251	 35.756010	-7.813440	-2.350882	 35.473990	 5.254307
-0.007497	 0.073843	 1.267637	 89.260220	 0.804737	 3.736619	 5.000657	-4.374345	 176.549700	-10.949140	-34.277630	-5.091960	 171.951500	 86.092000	 179.628300	-2.375431	 30.561490	-0.046258	 1.867934	-12.976270	 178.969000	 3.977283	-48.337570	 6.116103	-176.117600	 81.472260	-177.750200	 2.403407	 22.292890	-0.127196	 6.119565	 0.014747	-1.620330	 11.266450	-2.791662	 0.595004	 13.939990	-4.811821	 1.510673	-91.807770	 77.627110	 179.168800	 36.590530	 69.736740	-39.653920	-8.120308	-4.043940	-20.620630	 3.959654	-20.196440	-5.686160	-3.812334	 37.924440	-2.927599	-2.450526	 36.184240	 0.754587	-1.378229	 35.397820	-2.634230	 0.461281	 5.638822	-3.518342	 3.821343	-13.456500	-0.316304	 89.764630	 79.244330	-179.622800	-36.283910	 70.494850	 39.128540	 4.238805	-7.727053	 29.943360	-8.266991	-21.009810	 10.268510	 6.437017	 35.671460	-0.771858	 2.830251	 35.756010	-7.813440	-2.350882	 35.473990	 5.254307
-0.007347	 0.075472	 1.267231	 89.263020	 0.824368	 3.718649	 5.020634	-4.505738	 176.598400	-10.860530	-34.472670	-5.053105	 172.074300	 85.930130	 179.613600	-2.374821	 30.671640	-0.048724	 1.947799	-13.253110	 178.997300	 4.165672	-48.908200	 6.386390	-176.202600	 81.286970	-177.554200	 2.402818	 22.603800	-0.120893	 6.102352	 0.067845	-1.590219	 11.202490	-2.885558	 0.578838	 13.841350	-4.924094	 1.513394	-91.805350	 77.676010	 179.190100	 36.602490	 69.648360	-39.770630	-8.158457	-4.044203	-20.788190	 3.889859	-20.234730	-5.689134	-3.812334	 37.924440	-2.927599	-2.450526	 36.184240	 0.754587	-1.378229	 35.397820	-2.634230	 0.374652	 5.533822	-3.469836	 3.728708	-13.444120	-0.439661	 89.765210	 79.193000	-179.616400	-36.351710	 70.531540	 39.335790	 4.212559	-7.722198	 29.717050	-8.343002	-21.054620	 10.270420	 6.437017	 35.671460	-0.771858	 2.830251	 35.756010	-7.813440	-2.350882	 35.473990	 5.254307
-0.007114	 0.077128	 1.266855	 89.216880	 0.832060	 3.671535	 5.083850	-4.609723	 176.690800	-10.810050	-34.636560	-5.000453	 172.257000	 85.794720	 179.550300	-2.374449	 30.740280	-0.050249	 2.085888	-13.635180	 179.065700	 4.308815	-49.632450	 6.689537	-176.252900	 81.174610	-177.407700	 2.401860	 23.080300	-0.111222	 6.073899	 0.178546	-1.525358	 11.105260	-2.963578	 0.571053	 13.703980	-5.022622	 1.509972	-91.802410	 77.734830	 179.219900	 36.625080	 69.554570	-39.922190	-8.185554	-4.040619	-20.899530	 3.831909	-20.276510	-5.691951	-3.812334	 37.924440	-2.927599	-2.450526	 36.184240	 0.754587	-1.378229	 35.397820	-2.634230	 0.240353	 5.574306	-3.315494	 3.592935	-13.569780	-0.678477	 89.766510	 79.131780	-179.620500	-36.409590	 70.564060	 39.528110	 4.207074	-7.713359	 29.529420	-8.395806	-21.101140	 10.272870	 6.437017	 35.671460	-0.771858	 2.830251	 35.756010	-7.813440	-2.350882	 35.473990	 5.254307
-0.006803	 0.079581	 1.266333	 89.106010	 0.844633	 3.535815	 5.250629	-4.718503	 176.871600	-10.799990	-34.822210	-4.902894	 172.657800	 85.635480	 179.340200	-2.374061	 30.810240	-0.051809	 2.212965	-14.380440	 179.250500	 4.579749	-50.966990	 7.174595	-176.244000	 81.138070	-177.320500	 2.399706	 24.015010	-0.092104	 6.055824	 0.417444	-1.374516	 10.991740	-3.076954	 0.581114	 13.549340	-5.172866	 1.510471	-91.797970	 77.830720	 179.264900	 36.692840	 69.406990	-40.234390	-8.213040	-4.031158	-20.990410	 3.763599	-20.343120	-5.695740	-3.812334	 37.924440	-2.927599	-2.450526	 36.184240	 0.754587	-1.378229	 35.397820	-2.634230	 0.095015	 5.575196	-3.151917	 3.447562	-13.731660	-0.936517	 89.769070	 79.029790	-179.642700	-36.515770	 70.600800	 39.830890	 4.214522	-7.695694	 29.298320	-8.446098	-21.172630	 10.276640	 6.437017	 35.671460	-0.771858	 2.830251	 35.756010	-7.813440	-2.350882	 35.473990	 5.254307
-0.006630	 0.081039	 1.266018	 89.029530	 0.847664	 3.420825	 5.391552	-4.761538	 176.996200	-10.833540	-34.903310	-4.837012	 173.326800	 85.557410	 178.798400	-2.373693	 30.875020	-0.053263	 2.254318	-14.934830	 179.387300	 4.789592	-51.929370	 7.502321	-176.190700	 81.185730	-177.336300	 2.397677	 24.775570	-0.076418	 6.057778	 0.584352	-1.254761	 10.940610	-3.145082	 0.601539	 13.488900	-5.275859	 1.515750	-91.795530	 77.891850	 179.286600	 36.740100	 69.313850	-40.452270	-8.229183	-4.022216	-21.013200	 3.725785	-20.386250	-5.697834	-3.812334	 37.924440	-2.927599	-2.450526	 36.184240	 0.754587	-1.378229	 35.397820	-2.634230	 0.049094	 5.510119	-3.157597	 3.407319	-13.795590	-0.975166	 89.770890	 78.964420	-179.665800	-36.599410	 70.617240	 40.036590	 4.223486	-7.683033	 29.175560	-8.465578	-21.217540	 10.279140	 6.437017	 35.671460	-0.771858	 2.830251	 35.756010	-7.813440	-2.350882	 35.473990	 5.254307
-0.006288	 0.083473	 1.265483	 88.878050	 0.869368	 3.191289	 5.666985	-4.791986	 177.241600	-10.950420	-34.984340	-4.726107	 174.278500	 85.460330	 178.042100	-2.372891	 31.018200	-0.056467	 2.286683	-15.994870	 179.718200	 5.237798	-53.711780	 8.138323	-176.066700	 81.374380	-177.403000	 2.392372	 26.449070	-0.041434	 6.075220	 0.829748	-1.014537	 10.875140	-3.227115	 0.650772	 13.415770	-5.439483	 1.526538	-91.791960	 77.994910	 179.307700	 36.811010	 69.160390	-40.822860	-8.253030	-4.005103	-21.008490	 3.672994	-20.459560	-5.701038	-3.812334	 37.924440	-2.927599	-2.450526	 36.184240	 0.754587	-1.378229	 35.397820	-2.634230	 0.006411	 5.425115	-3.183895	 3.367215	-13.914880	-1.027643	 89.773160	 78.857170	-179.687700	-36.764740	 70.635570	 40.402040	 4.241557	-7.663578	 29.010710	-8.484606	-21.291390	 10.283680	 6.437017	 35.671460	-0.771858	 2.830251	 35.756010	-7.813440	-2.350882	 35.473990	 5.254307
